<?xml version="1.0" standalone="no"?>
<svg xmlns="http://www.w3.org/2000/svg" width="336.9135248547999" height="204.27352485479992" viewBox="0 0 336.9135248547999 204.27352485479992"><path fill="#ef9393" fill-rule="nonzero" d="M3.60 26.40L3.60 4.80Q3.60 2.76 3.04 1.78Q2.48 0.80 0.80 0.80L0.80 0.80L0 0.80L0 0L3.60 0Q5.08 0 5.82 0.38Q6.56 0.76 6.88 1.76Q7.20 2.76 7.20 4.80L7.20 4.80L7.20 24.80L21.40 24.80L21.40 26.40L3.60 26.40ZM46.56 26.60Q44.64 26.60 42.76 25.54Q40.88 24.48 39.76 21.40L39.76 21.40L38.76 18.80L27.56 18.80L24.36 26.40L22.56 26.40L33.76 0L34.96 0L43.76 21.40Q44.76 23.72 45.64 24.58Q46.52 25.44 48.16 25.60L48.16 25.60L48.16 26.40Q47.44 26.60 46.56 26.60L46.56 26.60ZM33.16 5.60L28.16 17.20L37.96 17.20L33.16 5.60Z" transform="translate(0 0) scale(2.443)"></path><path fill="#ef9393" fill-rule="nonzero" d="M3.60 26.40L3.60 4.80Q3.60 2.76 3.04 1.78Q2.48 0.80 0.80 0.80L0.80 0.80L0 0.80L0 0L10.40 0Q14.24 0 17.32 1.64Q20.40 3.28 20.40 8L20.40 8Q20.40 11.12 18.80 12.80Q17.20 14.48 15.22 15.04Q13.24 15.60 11.60 15.60L11.60 15.60L7.20 15.60L7.20 26.40L3.60 26.40ZM10.20 14.20Q11.48 14.20 12.92 13.54Q14.36 12.88 15.38 11.44Q16.40 10.00 16.40 7.80L16.40 7.80Q16.40 5.60 15.38 4.16Q14.36 2.72 12.92 2.06Q11.48 1.40 10.20 1.40L10.20 1.40Q8.80 1.40 7.20 1.80L7.20 1.80L7.20 13.80Q8.80 14.20 10.20 14.20L10.20 14.20ZM25.68 26.40L25.68 4.80Q25.68 2.76 25.12 1.78Q24.56 0.80 22.88 0.80L22.88 0.80L22.08 0.80L22.08 0L39.12 0Q42.52 0 42.52 3.20L42.52 3.20L42.52 6.20L41.72 6.20Q41.72 1.60 36.72 1.60L36.72 1.60L29.28 1.60L29.28 12.00L40.08 12.00L40.08 13.60L29.28 13.60L29.28 24.80L36.28 24.80Q39.04 24.80 40.60 23.80Q42.16 22.80 43.08 20.40L43.08 20.40L43.88 20.60L42.48 24.40Q41.76 26.40 39.48 26.40L39.48 26.40L25.68 26.40ZM66.88 26.80Q64.76 26.80 63.18 25.54Q61.60 24.28 59.68 21L59.68 21L55.68 14.20L52.88 14.20L52.88 26.40L49.28 26.40L49.28 4.80Q49.28 2.76 48.72 1.78Q48.16 0.80 46.48 0.80L46.48 0.80L45.68 0.80L45.68 0L56.08 0Q59.88 0 62.98 1.50Q66.08 3 66.08 7.20L66.08 7.20Q66.08 12.52 59.68 14.00L59.68 14.00L63.88 21Q65.36 23.48 66.54 24.46Q67.72 25.44 69.28 25.60L69.28 25.60L69.28 26.40Q68.92 26.56 68.26 26.68Q67.60 26.80 66.88 26.80L66.88 26.80ZM55.88 12.80Q57.12 12.80 58.58 12.20Q60.04 11.60 61.06 10.32Q62.08 9.04 62.08 7.20L62.08 7.20Q62.08 5.24 61.06 3.94Q60.04 2.64 58.58 2.02Q57.12 1.40 55.88 1.40L55.88 1.40Q54.48 1.40 52.88 1.80L52.88 1.80L52.88 12.40Q54.48 12.80 55.88 12.80L55.88 12.80ZM73.08 26.40L73.08 4.80Q73.08 2.76 72.52 1.78Q71.96 0.80 70.28 0.80L70.28 0.80L69.48 0.80L69.48 0L73.08 0Q74.56 0 75.30 0.38Q76.04 0.76 76.36 1.76Q76.68 2.76 76.68 4.80L76.68 4.80L76.68 24.80L90.88 24.80L90.88 26.40L73.08 26.40ZM116.04 26.60Q114.12 26.60 112.24 25.54Q110.36 24.48 109.24 21.40L109.24 21.40L108.24 18.80L97.04 18.80L93.84 26.40L92.04 26.40L103.24 0L104.44 0L113.24 21.40Q114.24 23.72 115.12 24.58Q116 25.44 117.64 25.60L117.64 25.60L117.64 26.40Q116.92 26.60 116.04 26.60L116.04 26.60ZM102.64 5.60L97.64 17.20L107.44 17.20L102.64 5.60Z" transform="translate(0 72.976) scale(1)"></path><path fill="#ef9393" fill-rule="nonzero" d="M3.60 26.40L3.60 4.80Q3.60 2.76 3.04 1.78Q2.48 0.80 0.80 0.80L0.80 0.80L0 0.80L0 0L10.48 0Q18.24 0 22.22 3.44Q26.20 6.88 26.20 13.04L26.20 13.04Q26.20 17 24.52 20.02Q22.84 23.04 19.54 24.72Q16.24 26.40 11.52 26.40L11.52 26.40L3.60 26.40ZM11.40 25.00Q14.36 25.00 16.74 23.54Q19.12 22.08 20.48 19.42Q21.84 16.76 21.84 13.20L21.84 13.20Q21.84 9.72 20.50 7.04Q19.16 4.36 16.76 2.88Q14.36 1.40 11.32 1.40L11.32 1.40Q9.40 1.40 7.32 2.04L7.32 2.04L7.32 24.48Q9.56 25.00 11.40 25.00L11.40 25.00ZM31.92 26.40L31.92 4.80Q31.92 2.76 31.36 1.78Q30.80 0.80 29.12 0.80L29.12 0.80L28.32 0.80L28.32 0L45.36 0Q48.76 0 48.76 3.20L48.76 3.20L48.76 6.20L47.96 6.20Q47.96 1.60 42.96 1.60L42.96 1.60L35.52 1.60L35.52 12.00L46.32 12.00L46.32 13.60L35.52 13.60L35.52 24.80L42.52 24.80Q45.28 24.80 46.84 23.80Q48.40 22.80 49.32 20.40L49.32 20.40L50.12 20.60L48.72 24.40Q48 26.40 45.72 26.40L45.72 26.40L31.92 26.40ZM55.52 26.40L55.52 4.80Q55.52 2.76 54.96 1.78Q54.40 0.80 52.72 0.80L52.72 0.80L51.92 0.80L51.92 0L55.52 0Q57 0 57.74 0.38Q58.48 0.76 58.80 1.76Q59.12 2.76 59.12 4.80L59.12 4.80L59.12 24.80L73.32 24.80L73.32 26.40L55.52 26.40Z" transform="translate(0 107.776) scale(1.605)"></path><path fill="#ef9393" fill-rule="nonzero" d="M9.12 27.80Q6.92 27.80 4.80 27.20Q2.68 26.60 1.34 25.48Q0 24.36 0 22.92L0 22.92L0 18.64L0.72 18.64Q1.40 22.64 3.36 24.42Q5.32 26.20 8.76 26.20L8.76 26.20Q10.92 26.20 12.46 25.12Q14 24.04 14 22.12L14 22.12Q14 20.44 12.96 19.20Q11.92 17.96 9.60 16.60L9.60 16.60L4.68 13.68Q2.12 12.16 1.06 10.60Q0 9.04 0 6.80L0 6.80Q0 3.72 2.14 1.86Q4.28 0 7.76 0L7.76 0Q9.80 0 11.80 0.58Q13.80 1.16 15.10 2.26Q16.40 3.36 16.40 4.80L16.40 4.80L16.40 9.08L15.68 9.08Q15 5.08 13.10 3.34Q11.20 1.60 7.76 1.60L7.76 1.60Q5.92 1.60 4.52 2.72Q3.12 3.84 3.12 5.64L3.12 5.64Q3.12 7.28 4.14 8.36Q5.16 9.44 7.56 10.88L7.56 10.88L12.48 13.80Q15.20 15.44 16.32 16.84Q17.44 18.24 17.44 20.40L17.44 20.40Q17.44 23.76 15.20 25.78Q12.96 27.80 9.12 27.80L9.12 27.80ZM33.32 27.52Q29.48 27.52 27.24 26.22Q25 24.92 24.06 22.36Q23.12 19.80 23.12 15.72L23.12 15.72L23.12 5.52Q23.12 3.48 22.56 2.50Q22 1.52 20.32 1.52L20.32 1.52L19.52 1.52L19.52 0.72L23.12 0.72Q24.60 0.72 25.34 1.10Q26.08 1.48 26.40 2.48Q26.72 3.48 26.72 5.52L26.72 5.52L26.72 16.92Q26.72 21.36 28.36 23.64Q30 25.92 33.80 25.92L33.80 25.92Q36.84 25.92 38.62 24.84Q40.40 23.76 41.16 21.56Q41.92 19.36 41.92 15.72L41.92 15.72L41.92 0.72L43.52 0.72L43.52 15.72Q43.52 19.88 42.64 22.42Q41.76 24.96 39.54 26.24Q37.32 27.52 33.32 27.52L33.32 27.52ZM68.48 27.52Q66.36 27.52 64.78 26.26Q63.20 25 61.28 21.72L61.28 21.72L57.28 14.92L54.48 14.92L54.48 27.12L50.88 27.12L50.88 5.52Q50.88 3.48 50.32 2.50Q49.76 1.52 48.08 1.52L48.08 1.52L47.28 1.52L47.28 0.72L57.68 0.72Q61.48 0.72 64.58 2.22Q67.68 3.72 67.68 7.92L67.68 7.92Q67.68 13.24 61.28 14.72L61.28 14.72L65.48 21.72Q66.96 24.20 68.14 25.18Q69.32 26.16 70.88 26.32L70.88 26.32L70.88 27.12Q70.52 27.28 69.86 27.40Q69.20 27.52 68.48 27.52L68.48 27.52ZM57.48 13.52Q58.72 13.52 60.18 12.92Q61.64 12.32 62.66 11.04Q63.68 9.76 63.68 7.92L63.68 7.92Q63.68 5.96 62.66 4.66Q61.64 3.36 60.18 2.74Q58.72 2.12 57.48 2.12L57.48 2.12Q56.08 2.12 54.48 2.52L54.48 2.52L54.48 13.12Q56.08 13.52 57.48 13.52L57.48 13.52Z" transform="translate(0 158.134) scale(1.66)"></path><g fill="#ebbae7" color="#ebbae7" transform="translate(132.64 0) scale(2.0427353)"><svg width="100.0" height="100.0" x="0.0" y="0.0" viewBox="0 0 100 100"><g><path d="M89.2,52.8c-0.1-0.3-1-2.8-2.7-3.3c-0.1-1.5-0.8-3.7-3.2-4.8c1-1.6,1.4-3.1,1.5-4.4c0.2-4-2.3-7.4-4.8-8.8   c0.1-0.7,0.1-1.5,0-2.4c-0.6-5.7-7.5-6.7-8.8-6.9c-0.7-3.7-4.4-9.6-20.5-16.9L49.7,5v1c0,0.4-0.1,8.7-7.3,9.3   C34.6,16,28.1,17,28.4,21.7c0,0.6,0.2,1.2,0.5,1.8c-1.7,0.1-5.5,0.6-7.6,2.8c-1.1,1.1-1.6,2.5-1.6,4.1c0,0.4,0.1,0.8,0.2,1.2   c-1.8,0.6-6.9,2.8-7.3,7.8c-0.2,2.9,0.8,5.3,2.5,7.3c-1.4,0.9-2,2.9-2.2,3.6c-0.7,0.4-2.4,1.5-2.2,3c0.1,0.3,10.5,30.5,10.5,36.2   c0,0.3,0.2,0.5,0.4,0.6c0.1,0.1,14,4.9,30.3,4.9c0,0,0,0,0,0c10.9,0,20.4-2.1,28.3-6.3c0.2-0.1,0.3-0.3,0.3-0.5   c0.1-0.3,5.4-29.2,8.6-34.9C89.3,53.2,89.3,53,89.2,52.8z M42.5,16.7c6.8-0.6,8.2-7.1,8.5-9.7c19.7,9,19.2,15.6,19,18   c-0.2,2.7-2.5,5.2-17.8,5.4c-0.3,0-0.6,0-0.9,0c0,0,0,0,0,0c-14.3,0-21.3-5.3-21.5-8.9C29.5,18.4,34.3,17.4,42.5,16.7z M22.2,27.1   c2.3-2.4,7.2-2.5,7.5-2.4c0.4,0.5,0.8,1,1.4,1.5c1.9,2.2,5.9,5.6,21.2,7c22.3,2,23-6.4,22.2-8.6c1.9,0.8,3.9,2.2,4.2,4.8   c0.2,2.1-0.2,3.7-1.4,5.1c-2.9,3.4-10.2,5.2-22.4,5.7c-15.1,0.6-27.3-1.8-32-6.2c-1.2-1.1-1.8-2.3-1.8-3.6C21,29,21.4,28,22.2,27.1   z M13.9,39.4c0.4-4.3,4.9-6.2,6.5-6.7c0.4,0.7,0.9,1.4,1.6,2.1c0.9,0.9,2.1,1.6,3.5,2.4c6.9,4.4,15.4,5.1,15.4,5.1   c34.3,2.9,40.2-5.6,41-7.3c1,1.5,1.7,3.3,1.6,5.2c-0.2,2.7-1.9,6.5-9.1,9.5c-13.9,5.7-46.1,1.1-51.4,0   C18.2,48.7,13.4,44.8,13.9,39.4z M22.4,89c-0.5-6.9-10.1-35-10.5-36.1c0-0.2,0.1-0.4,0.4-0.7c0,0.3,0,0.6,0,0.8   c0,0.2,0.1,0.3,0.2,0.5c0,0,0.1,0.1,0.1,0.1c3,9.6,5.1,16.4,6.7,21.3c3.5,11.2,3.9,12.4,4.1,14.5C23,89.2,22.7,89.1,22.4,89z    M24.4,89.6c-0.1-2.4-0.4-3.2-4.1-15.1c-1.5-4.8-3.7-11.6-6.6-21l2-0.1l1.3,2.1c0,0,0,0,0,0c2.2,8.6,7.3,29.5,8.2,34.2   C24.9,89.7,24.6,89.7,24.4,89.6z M26.1,90.1c-0.7-4.6-7-29.8-8.1-34.3l2.2-0.7l1.7,1.7c0.5,2.9,5.2,28.4,6.1,33.7   C27.3,90.4,26.6,90.2,26.1,90.1z M28.9,90.8c-0.7-4.3-5.3-29.3-6.1-33.8l2.7-0.7l1.6,1.8c0.4,2.8,3.9,28.1,4.4,33.2   C30.6,91.2,29.7,91,28.9,90.8z M32.4,91.6C32,87.1,28.6,62.7,28,58.4l2.5-1.3l2,1.9c1.2,10.4,3.4,29,3.8,33.4   C35,92.1,33.7,91.8,32.4,91.6z M37.3,92.5c-0.4-4.8-3.3-29-3.8-33.3l3.6-1.4l3.7,2.4L43,93.2C41,93,39.1,92.8,37.3,92.5z    M50.7,93.7c-2.3,0-4.6-0.2-6.8-0.4l-2.2-33l4.7-1.5l4.3,2.2V93.7z M46.8,57.5c-0.2-0.1-0.3-0.1-0.5,0L41.5,59l-3.9-2.5   c-0.2-0.1-0.4-0.1-0.6-0.1l-3.7,1.4l-2.2-2c-0.2-0.2-0.5-0.2-0.7-0.1L27.8,57l-1.6-1.8C26,55,25.8,54.9,25.6,55l-2.9,0.7l-1.9-1.8   c-0.2-0.2-0.4-0.2-0.7-0.2l-2.3,0.7l-1.3-2c-0.1-0.2-0.3-0.3-0.6-0.3l-2.3,0.2c0-0.5,0.1-1,0.2-1.1C14,51.1,14,51,14,50.8l0,0   c0,0,0.5-2.6,2-3.2c1.9,1.7,4.3,2.9,6.7,3.4c3.6,0.7,17.7,2.9,31.2,2.9c7.9,0,15.6-0.7,20.9-2.9c3.8-1.5,6.2-3.4,7.6-5.2   c2.9,1,2.6,4,2.6,4.2l0,0c0,0.1,0,0.1,0,0.2l0.2,1.1L84,50.9c-0.3-0.1-0.6,0.1-0.8,0.4L81.9,54l-3.3-0.8c-0.2-0.1-0.5,0-0.7,0.2   l-2.4,3l-3.2-1.4c-0.2-0.1-0.5-0.1-0.7,0.1l-2.8,2.2l-4.3-1c-0.2,0-0.4,0-0.5,0.1L60.7,59l-5.2-1.7c-0.2-0.1-0.4,0-0.6,0.1   l-3.7,2.4L46.8,57.5z M51.9,93.7C51.9,93.7,51.9,93.7,51.9,93.7c-0.1,0-0.2,0-0.3,0V61.1c0,0,0,0,0.1,0l3.8-2.5l4.7,1.5   c-0.3,3.9-2,27.7-2,33.2C56.1,93.6,54,93.7,51.9,93.7z M59.1,93.3c0.1-5.5,1.8-29.2,2-33c0,0,0.1,0,0.1-0.1l3.4-2.5l3.7,0.8   c-0.7,4-4.3,26.9-4.4,34.1C62.4,93,60.7,93.2,59.1,93.3z M64.9,92.5c0.1-7.3,3.8-30,4.4-33.8c0.1,0,0.1-0.1,0.2-0.1l2.7-2.2   l2.9,1.2c-0.8,3.9-5.8,27.3-5.7,33.8C67.9,91.9,66.4,92.2,64.9,92.5z M70.3,91.3c0-6.6,4.9-29.6,5.7-33.4c0.1,0,0.3-0.1,0.3-0.2   l2.4-3.1l2.8,0.6c-0.9,4.3-6.4,28.8-6.6,34.4C73.4,90.3,71.9,90.8,70.3,91.3z M75.9,89.3c0.5-6.1,5.8-30.1,6.6-33.9   c0.2,0,0.3-0.2,0.4-0.3l1.3-2.8l1.2,0.4c-1.1,4.3-7.8,30-7.9,35.9C77,88.8,76.4,89.1,75.9,89.3z M79.3,87.7   c-0.3,0.1-0.6,0.3-0.8,0.4c0.3-6.4,6.8-31.4,7.8-35.3c0.1,0,0.2-0.1,0.3-0.1c0.2-0.2,0.3-0.4,0.2-0.6l-0.2-1c0.6,0.5,1,1.4,1.2,1.9   C84.7,59.1,79.9,84.4,79.3,87.7z"></path><path d="M38.2,20.5l1.9,0.5c0,0,0.9,0.4,0.9,0s-0.3-0.5-0.3-0.5l-2.5-0.7c-0.5,0.1-0.5,0.1-0.5,0.3C37.6,20.3,38.2,20.5,38.2,20.5z   "></path><path d="M52.7,15.6c0.2,0.1,0.6-0.3,0.6-0.3l1.3-1.5c0,0,0.8-0.6,0.4-0.8c-0.4-0.2-0.6,0.1-0.6,0.1l-1.7,2   C52.6,15.4,52.5,15.5,52.7,15.6z"></path><path d="M62.6,20.7c0,0,0.5,0.9,0.7,0.5c0.2-0.4,0-0.6,0-0.6l-1.7-2c-0.5-0.2-0.5-0.2-0.6-0.1c-0.1,0.2,0.2,0.7,0.2,0.7L62.6,20.7z   "></path><path d="M45.2,26.4l1.9-0.5c0,0,1-0.1,0.8-0.5c-0.2-0.4-0.5-0.3-0.5-0.3l-2.5,0.7c-0.4,0.3-0.4,0.4-0.3,0.5   C44.6,26.5,45.2,26.4,45.2,26.4z"></path><path d="M57.4,27.1c0,0,0.2,1,0.5,0.7s0.2-0.6,0.2-0.6l-1-2.4c-0.4-0.3-0.4-0.4-0.6-0.3c-0.1,0.1,0,0.7,0,0.7L57.4,27.1z"></path><path d="M27.7,31.9c0,0,0.2,1,0.5,0.7c0.4-0.3,0.2-0.6,0.2-0.6l-1-2.4c-0.4-0.3-0.4-0.4-0.6-0.3c-0.1,0.1,0,0.7,0,0.7L27.7,31.9z"></path><path d="M33.1,36.4l2.1-1.5c0.2-0.5,0.3-0.5,0.1-0.6c-0.1-0.1-0.7,0.2-0.7,0.2l-1.6,1.2c0,0-0.9,0.4-0.6,0.7S33.1,36.4,33.1,36.4z"></path><path d="M46.3,38c0.4-0.1,0.4-0.4,0.4-0.4l0.2-2.6c-0.2-0.5-0.2-0.5-0.4-0.5c-0.2,0-0.3,0.6-0.3,0.6l-0.1,2   C46.2,37.1,45.9,38,46.3,38z"></path><path d="M58,37l2,0.1c0,0,1,0.3,0.9-0.2c-0.1-0.4-0.4-0.4-0.4-0.4l-2.6-0.2c-0.5,0.2-0.5,0.2-0.5,0.4C57.4,36.8,58,37,58,37z"></path><path d="M70.4,47.8c0.4,0,0.5-0.3,0.5-0.3l0.8-2.5c-0.1-0.5-0.1-0.6-0.3-0.6C71.3,44.5,71,45,71,45l-0.5,1.9   C70.5,46.9,70,47.8,70.4,47.8z"></path><path d="M77.1,45.6c0.2,0.1,0.7-0.2,0.7-0.2l1.4-1.4c0,0,0.9-0.5,0.5-0.8s-0.6,0-0.6,0l-1.9,1.8C77,45.4,77,45.5,77.1,45.6z"></path><path d="M61.5,47.6l1.8,0.9c0,0,0.8,0.6,0.9,0.2c0.1-0.4-0.2-0.6-0.2-0.6l-2.3-1.2c-0.5,0-0.6,0-0.6,0.2   C61,47.2,61.5,47.6,61.5,47.6z"></path><path d="M52.5,49.2c0,0,0.1,1,0.5,0.8c0.4-0.2,0.3-0.5,0.3-0.5l-0.7-2.5c-0.3-0.4-0.4-0.4-0.5-0.3S52,47.3,52,47.3L52.5,49.2z"></path><path d="M19.5,39.5c0.4-0.1,0.5-0.4,0.5-0.4l0.3-2.6C20,36.1,20,36,19.8,36.1c-0.2,0-0.3,0.6-0.3,0.6l-0.2,2   C19.3,38.7,19,39.6,19.5,39.5z"></path><path d="M23.3,44l2.2-1.3c0.3-0.4,0.3-0.5,0.2-0.6C25.5,42,25,42.2,25,42.2l-1.7,1c0,0-0.9,0.3-0.6,0.6C23,44.2,23.3,44,23.3,44z"></path><path d="M30.7,46.9l1.7,1c0,0,0.7,0.7,0.9,0.2c0.1-0.4-0.2-0.6-0.2-0.6l-2.2-1.4c-0.5,0-0.6-0.1-0.6,0.1S30.7,46.9,30.7,46.9z"></path><path d="M40.1,47.9c0.4,0.1,0.6-0.2,0.6-0.2l1.4-2.2c0.1-0.5,0.1-0.6-0.1-0.6s-0.6,0.4-0.6,0.4L40.3,47   C40.3,47,39.6,47.8,40.1,47.9z"></path><path d="M69.9,33.9l2.1,1.5c0.5,0.1,0.5,0.1,0.6-0.1c0.1-0.2-0.4-0.6-0.4-0.6l-1.6-1.1c0,0-0.7-0.7-0.8-0.3   C69.6,33.7,69.9,33.9,69.9,33.9z"></path></g></svg></g></svg>